<?xml version="1.0" encoding="iso-8859-1"?>
<!-- Generator: Adobe Illustrator 19.0.0, SVG Export Plug-In . SVG Version: 6.00 Build 0)  -->
<svg version="1.1" id="Capa_1" xmlns="http://www.w3.org/2000/svg" xmlns:xlink="http://www.w3.org/1999/xlink" x="0px" y="0px"
	 viewBox="0 0 512 512" style="enable-background:new 0 0 512 512;" xml:space="preserve">
<path style="fill:#F2C230;" d="M512,256c0,141.385-114.615,256-256,256S0,397.385,0,256S114.615,0,256,0S512,114.615,512,256z"/>
<path style="fill:#46A5CD;" d="M459,102v309.963c-33.488,43.521-80.65,75.967-135.066,90.907C292.044,487.689,270,455.171,270,417.5
	V280.953h-31V417.5c0,37.246-21.551,69.454-52.861,84.849C130.896,486.713,83.257,452.991,50,407.992V104.008
	c31.168-42.172,74.973-74.428,125.826-91.185C212.619,25.748,239,60.79,239,102v138.953h31V102
	c0-41.752,27.079-77.176,64.631-89.678c49.883,16.085,93.072,47.054,124.344,87.682C458.988,100.668,459,101.333,459,102z"/>
<g>
	<path style="fill:#4191BE;" d="M342.134,497.131c-5.968,2.132-12.037,4.047-18.2,5.739C292.044,487.689,270,455.171,270,417.5V102
		c0-41.752,27.079-77.176,64.631-89.678c5.208,1.68,10.349,3.506,15.405,5.503c-30.59,15.644-51.537,47.458-51.537,84.175v315.5
		C298.499,450.959,315.9,480.339,342.134,497.131z M86.302,64.348C72.866,76.253,60.689,89.545,50,104.008v303.984
		c9.615,13.01,20.433,25.071,32.289,36.03c-2.457-8.417-3.79-17.313-3.79-26.522V102C78.499,88.616,81.284,75.885,86.302,64.348z"/>
	<path style="fill:#4191BE;" d="M247,243.096v32.208c0,2.594-2.103,4.696-4.696,4.696c-1.839,0-3.518-1.07-4.269-2.75
		c-16.035-35.889-51.88-60.883-93.535-60.883l0,0c-41.654,0-77.5,24.994-93.535,60.883c-0.75,1.68-2.429,2.75-4.269,2.75
		c-2.594,0-4.696-2.103-4.696-4.696v-32.208C42,186.157,87.891,140,144.5,140l0,0C201.109,140,247,186.157,247,243.096z M364.5,140
		L364.5,140C307.891,140,262,186.157,262,243.096v32.208c0,2.594,2.103,4.696,4.696,4.696c1.839,0,3.518-1.07,4.269-2.75
		c16.035-35.889,51.88-60.883,93.535-60.883l0,0c41.654,0,77.5,24.994,93.535,60.883c0.75,1.68,2.429,2.75,4.269,2.75
		c2.594,0,4.696-2.103,4.696-4.696v-32.208C467,186.157,421.109,140,364.5,140z"/>
</g>
<path style="fill:#41739B;" d="M240,417c0,52.467-42.533,95-95,95s-95-42.533-95-95s42.533-95,95-95S240,364.533,240,417z M365,322
	c-52.467,0-95,42.533-95,95s42.533,95,95,95s95-42.533,95-95S417.467,322,365,322z M364.5,190L364.5,190
	c-48.712,0-89.464,34.186-99.893,80h-20.215c-10.428-45.814-51.181-80-99.892-80l0,0c-51.595,0-94.279,38.345-101.437,88.246
	c0.861,1.062,2.16,1.754,3.633,1.754c1.839,0,3.518-1.07,4.269-2.75c16.035-35.889,51.88-60.883,93.535-60.883l0,0
	c41.654,0,77.5,24.994,93.535,60.883c0.235,0.526,0.57,0.984,0.964,1.377v2.326h31.042v-2.367c0.376-0.384,0.696-0.827,0.923-1.336
	c16.035-35.889,51.88-60.883,93.535-60.883l0,0c41.654,0,77.5,24.994,93.535,60.883c0.75,1.68,2.429,2.75,4.269,2.75
	c1.474,0,2.772-0.692,3.633-1.754C458.779,228.345,416.095,190,364.5,190z"/>
<path style="fill:#E6FAFF;" d="M430,417c0,35.898-29.102,65-65,65s-65-29.102-65-65s29.102-65,65-65S430,381.102,430,417z M145,352
	c-35.898,0-65,29.102-65,65s29.102,65,65,65s65-29.102,65-65S180.898,352,145,352z"/>
<path style="fill:#CDF5FF;" d="M383.5,479.313C377.635,481.052,371.429,482,365,482c-35.898,0-65-29.102-65-65s29.102-65,65-65
	c6.429,0,12.635,0.948,18.5,2.688C356.617,362.656,337,387.531,337,417S356.617,471.344,383.5,479.313z M163.5,354.688
	c-5.865-1.74-12.071-2.688-18.5-2.688c-35.898,0-65,29.102-65,65s29.102,65,65,65c6.429,0,12.635-0.948,18.5-2.688
	C136.617,471.344,117,446.469,117,417S136.617,362.656,163.5,354.688z"/>
<g>
</g>
<g>
</g>
<g>
</g>
<g>
</g>
<g>
</g>
<g>
</g>
<g>
</g>
<g>
</g>
<g>
</g>
<g>
</g>
<g>
</g>
<g>
</g>
<g>
</g>
<g>
</g>
<g>
</g>
</svg>
