<?xml version="1.0" encoding="UTF-8" standalone="no"?>
<svg
   xmlns:dc="http://purl.org/dc/elements/1.1/"
   xmlns:cc="http://creativecommons.org/ns#"
   xmlns:rdf="http://www.w3.org/1999/02/22-rdf-syntax-ns#"
   xmlns:svg="http://www.w3.org/2000/svg"
   xmlns="http://www.w3.org/2000/svg"
   xmlns:sodipodi="http://sodipodi.sourceforge.net/DTD/sodipodi-0.dtd"
   xmlns:inkscape="http://www.inkscape.org/namespaces/inkscape"
   width="120mm"
   height="90mm"
   viewBox="0 0 120 90"
   version="1.1"
   id="svg8"
   inkscape:version="1.0 (4035a4fb49, 2020-05-01)"
   sodipodi:docname="logo_3.svg">
  <defs
     id="defs2" />
  <sodipodi:namedview
     inkscape:lockguides="false"
     id="base"
     pagecolor="#ffffff"
     bordercolor="#666666"
     borderopacity="1.0"
     inkscape:pageopacity="0.0"
     inkscape:pageshadow="2"
     inkscape:zoom="0.9899495"
     inkscape:cx="576.97386"
     inkscape:cy="115.24648"
     inkscape:document-units="mm"
     inkscape:current-layer="g1943"
     inkscape:document-rotation="0"
     showgrid="true"
     inkscape:window-width="1366"
     inkscape:window-height="715"
     inkscape:window-x="-8"
     inkscape:window-y="-8"
     inkscape:window-maximized="1">
    <inkscape:grid
       originy="1.3835691e-07"
       originx="-3.1471241e-07"
       id="grid1945"
       type="xygrid" />
  </sodipodi:namedview>
  <metadata
     id="metadata5">
    <rdf:RDF>
      <cc:Work
         rdf:about="">
        <dc:format>image/svg+xml</dc:format>
        <dc:type
           rdf:resource="http://purl.org/dc/dcmitype/StillImage" />
        <dc:title></dc:title>
      </cc:Work>
    </rdf:RDF>
  </metadata>
  <g
     inkscape:label="Capa 1"
     inkscape:groupmode="layer"
     id="layer1">
    <g
       transform="translate(-27.186084,-70.997125)"
       id="g1943">
      <text
         transform="scale(0.81941421,1.220384)"
         id="text12"
         y="114.56849"
         x="70.967499"
         style="font-style:normal;font-variant:normal;font-weight:bold;font-stretch:normal;font-size:16.6113px;line-height:1.25;font-family:Consolas;-inkscape-font-specification:'Consolas, Bold';font-variant-ligatures:normal;font-variant-caps:normal;font-variant-numeric:normal;font-variant-east-asian:normal;fill:#e78200;fill-opacity:1;stroke:none;stroke-width:0.300432"
         xml:space="preserve"><tspan
           style="font-style:normal;font-variant:normal;font-weight:bold;font-stretch:normal;font-size:16.6113px;font-family:Consolas;-inkscape-font-specification:'Consolas, Bold';font-variant-ligatures:normal;font-variant-caps:normal;font-variant-numeric:normal;font-variant-east-asian:normal;fill:#e78200;fill-opacity:1;stroke-width:0.300432"
           y="114.56849"
           x="70.967499"
           id="tspan10"
           sodipodi:role="line">Software</tspan></text>
      <text
         transform="scale(0.81760193,1.2230891)"
         xml:space="preserve"
         style="font-style:normal;font-variant:normal;font-weight:bold;font-stretch:normal;font-size:16.3684px;line-height:1.25;font-family:Consolas;-inkscape-font-specification:'Consolas, Bold';font-variant-ligatures:normal;font-variant-caps:normal;font-variant-numeric:normal;font-variant-east-asian:normal;fill:#e78200;fill-opacity:1;stroke:none;stroke-width:0.291069"
         x="71.932571"
         y="125.59296"
         id="text46"><tspan
           sodipodi:role="line"
           id="tspan44"
           x="71.932571"
           y="125.59296"
           style="font-style:normal;font-variant:normal;font-weight:bold;font-stretch:normal;font-size:16.3684px;font-family:Consolas;-inkscape-font-specification:'Consolas, Bold';font-variant-ligatures:normal;font-variant-caps:normal;font-variant-numeric:normal;font-variant-east-asian:normal;fill:#e78200;fill-opacity:1;stroke-width:0.291069">Development</tspan></text>
      <text
         inkscape:transform-center-y="37.163854"
         inkscape:transform-center-x="-21.224239"
         transform="matrix(0.00582992,-0.98333327,1.0169158,0.00563739,0,0)"
         id="text50"
         y="58.588261"
         x="-158.43222"
         style="font-style:normal;font-variant:normal;font-weight:bold;font-stretch:normal;font-size:44.6726px;line-height:1.25;font-family:Consolas;-inkscape-font-specification:'Consolas, Bold';font-variant-ligatures:normal;font-variant-caps:normal;font-variant-numeric:normal;font-variant-east-asian:normal;fill:#e78200;fill-opacity:1;stroke:none;stroke-width:0.279204"
         xml:space="preserve"><tspan
           style="font-style:normal;font-variant:normal;font-weight:bold;font-stretch:normal;font-size:44.6726px;font-family:Consolas;-inkscape-font-specification:'Consolas, Bold';font-variant-ligatures:normal;font-variant-caps:normal;font-variant-numeric:normal;font-variant-east-asian:normal;fill:#e78200;fill-opacity:1;stroke-width:0.279204"
           y="58.588261"
           x="-158.43222"
           id="tspan48"
           sodipodi:role="line">DOP</tspan></text>
      <g
         transform="matrix(0.32984489,0,0,0.26738899,68.004462,86.126017)"
         id="g2091">
        <path
           id="path2"
           fill="#5a5a5a"
           d="m 52.434502,113.65292 h 50.438958 v 24.37337 H 52.434502 Z m 0,0"
           style="stroke-width:0.352777" />
        <path
           id="path4"
           fill="#80e0dc"
           d="M 158.5531,118.09021 H -3.245133 c -5.112522,0 -9.256283,-4.14376 -9.256283,-9.25628 V -22.851406 c 0,-5.112522 4.143761,-9.256283 9.256283,-9.256283 H 158.5531 c 5.11114,0 9.25628,4.143761 9.25628,9.256283 V 108.83393 c 0,5.11252 -4.14376,9.25628 -9.25628,9.25628 z m 0,0"
           style="stroke-width:0.352777" />
        <path
           id="path6"
           fill="#00a8b0"
           d="M 167.81076,-22.850028 V 108.83393 c 0,5.11252 -4.14376,9.25628 -9.25629,9.25628 h -11.30818 c 5.11252,0 9.25766,-4.14376 9.25766,-9.25628 V -22.850028 c 0,-5.112522 -4.14514,-9.257661 -9.25766,-9.257661 h 11.30818 c 5.11253,0 9.25629,4.145139 9.25629,9.257661 z m 0,0"
           style="stroke-width:0.352777" />
        <path
           id="path8"
           fill="#838383"
           d="M 167.80938,95.789414 H -12.501416 v 13.044516 c 0,5.11252 4.143761,9.25628 9.256283,9.25628 H 158.5531 c 5.11114,0 9.25628,-4.14376 9.25628,-9.25628 z m 0,0"
           style="stroke-width:0.352777" />
        <path
           id="path10"
           fill="#5a5a5a"
           d="m 167.81076,95.788044 v 13.045886 c 0,5.11252 -4.14376,9.25628 -9.25629,9.25628 h -11.30818 c 5.11252,0 9.25766,-4.14376 9.25766,-9.25628 V 95.788044 Z m 0,0"
           style="stroke-width:0.352777" />
        <path
           id="path12"
           fill="#acacac"
           d="M 168.01608,-0.52994573 H -12.300223 V -22.852784 c 0,-5.111144 4.143761,-9.254905 9.254906,-9.254905 H 158.7598 c 5.11252,0 9.25628,4.143761 9.25628,9.254905 z m 0,0"
           style="stroke-width:0.352777" />
        <path
           id="path14"
           fill="#9c9c9c"
           d="M 168.12082,-22.936844 V -0.61262573 H 156.6073 V -22.936844 c 0,-5.109766 -4.14514,-9.253527 -9.25766,-9.253527 h 11.51489 c 5.11253,0 9.25629,4.143761 9.25629,9.253527 z m 0,0"
           style="stroke-width:0.352777" />
        <path
           id="path16"
           fill="#ff5770"
           d="m 10.11357,-16.396675 c 0,2.907661 -2.357823,5.265484 -5.265484,5.265484 -2.907661,0 -5.265485,-2.357823 -5.265485,-5.265484 0,-2.90766 2.357824,-5.265484 5.265485,-5.265484 2.907661,0 5.265484,2.357824 5.265484,5.265484 z m 0,0"
           style="stroke-width:0.352777" />
        <path
           id="path18"
           fill="#ffd86e"
           d="m 30.447902,-16.396675 c 0,2.907661 -2.356443,5.265484 -5.265484,5.265484 -2.907659,0 -5.264105,-2.357823 -5.264105,-5.265484 0,-2.90766 2.356446,-5.265484 5.264105,-5.265484 2.909041,0 5.265484,2.357824 5.265484,5.265484 z m 0,0"
           style="stroke-width:0.352777" />
        <path
           id="path20"
           fill="#00d3b4"
           d="m 50.782237,-16.396675 c 0,2.907661 -2.356448,5.265484 -5.26411,5.265484 -2.909036,0 -5.265484,-2.357823 -5.265484,-5.265484 0,-2.90766 2.356448,-5.265484 5.265484,-5.265484 2.907662,0 5.26411,2.357824 5.26411,5.265484 z m 0,0"
           style="stroke-width:0.352777" />
        <path
           id="path22"
           fill="#ff435f"
           d="m 10.112192,-16.395296 c 0,2.90766 -2.355068,5.262728 -5.26135,5.262728 -1.408355,0 -2.689931,-0.552594 -3.632509,-1.455209 2.848405,-0.06201 5.141461,-2.392274 5.141461,-5.258594 0,-1.502061 -0.628386,-2.852539 -1.632976,-3.810276 0.03996,-0.0041 0.08406,-0.0041 0.124024,-0.0041 2.906282,0.0014 5.26135,2.356446 5.26135,5.265485 z m 0,0"
           style="stroke-width:0.352777" />
        <path
           id="path24"
           fill="#ffb509"
           d="m 30.447902,-16.395296 c 0,2.90766 -2.355067,5.262728 -5.265484,5.262728 -1.408353,0 -2.685796,-0.552594 -3.632509,-1.455209 2.852541,-0.06201 5.145598,-2.392274 5.145598,-5.258594 0,-1.502061 -0.628386,-2.852539 -1.632977,-3.810276 0.03996,-0.0041 0.07993,-0.0041 0.119888,-0.0041 2.910417,0.0014 5.265484,2.356446 5.265484,5.265485 z m 0,0"
           style="stroke-width:0.352777" />
        <path
           id="path26"
           fill="#00b7a0"
           d="m 50.783613,-16.395296 c 0,2.90766 -2.359203,5.262728 -5.265486,5.262728 -1.408351,0 -2.685796,-0.552594 -3.632507,-1.455209 2.852541,-0.06201 5.141462,-2.392274 5.141462,-5.258594 0,-1.502061 -0.627009,-2.852539 -1.632976,-3.810276 0.03996,-0.0041 0.08406,-0.0041 0.124021,-0.0041 2.906283,0.0014 5.265486,2.356446 5.265486,5.265485 z m 0,0"
           style="stroke-width:0.352777" />
        <path
           id="path28"
           fill="#838383"
           d="M 119.21837,148.20861 H 36.089591 c -1.001832,0 -1.813497,-0.81304 -1.813497,-1.81487 v -5.87871 c 0,-3.98805 3.231497,-7.21955 7.218162,-7.21955 H 113.8137 c 3.98667,0 7.21817,3.2315 7.21817,7.21955 v 5.87871 c 0.001,1.00183 -0.81166,1.81487 -1.8135,1.81487 z m 0,0"
           style="stroke-width:0.352777" />
        <path
           id="path30"
           fill="#5a5a5a"
           d="m 121.03187,140.51365 v 5.88146 c 0,1.00184 -0.81166,1.81488 -1.8135,1.81488 h -6.40512 v -7.69634 c 0,-3.98529 -3.23288,-7.21817 -7.21817,-7.21817 h 8.22 c 3.98529,0 7.21679,3.2315 7.21679,7.21817 z m 0,0"
           style="stroke-width:0.352777" />
        <path
           id="path32"
           fill="#5a5a5a"
           d="M 9.206821,18.772244 H 1.462246 c -1.460721,0 -2.645834,-1.18512 -2.645834,-2.64584 0,-1.46209 1.185113,-2.64583 2.645834,-2.64583 h 7.744575 c 1.46072,0 2.645833,1.18374 2.645833,2.64583 0,1.46072 -1.183734,2.64584 -2.645833,2.64584 z m 0,0"
           style="stroke-width:0.352777" />
        <path
           id="path34"
           fill="#5a5a5a"
           d="M 65.12486,18.772244 H 17.878815 c -1.46072,0 -2.645833,-1.18512 -2.645833,-2.64584 0,-1.46209 1.185113,-2.64583 2.645833,-2.64583 H 65.12486 c 1.4621,0 2.64583,1.18374 2.64583,2.64583 0,1.46072 -1.18373,2.64584 -2.64583,2.64584 z m 0,0"
           style="stroke-width:0.352777" />
        <path
           id="path36"
           fill="#5a5a5a"
           d="M 57.948035,32.566404 H 40.670193 c -1.460723,0 -2.645834,-1.18374 -2.645834,-2.64583 0,-1.46073 1.185111,-2.64584 2.645834,-2.64584 h 17.277842 c 1.462098,0 2.645835,1.18511 2.645835,2.64584 0,1.46209 -1.183737,2.64583 -2.645835,2.64583 z m 0,0"
           style="stroke-width:0.352777" />
        <path
           id="path38"
           fill="#5a5a5a"
           d="m 31.634397,32.566404 h -5.386756 c -1.460719,0 -2.645833,-1.18374 -2.645833,-2.64583 0,-1.46073 1.185114,-2.64584 2.645833,-2.64584 h 5.386756 c 1.460717,0 2.645828,1.18511 2.645828,2.64584 0,1.46209 -1.185111,2.64583 -2.645828,2.64583 z m 0,0"
           style="stroke-width:0.352777" />
        <path
           id="path40"
           fill="#5a5a5a"
           d="M 17.57978,32.566404 H 1.462246 c -1.460721,0 -2.645834,-1.18374 -2.645834,-2.64583 0,-1.46073 1.185113,-2.64584 2.645834,-2.64584 H 17.57978 c 1.460722,0 2.645834,1.18511 2.645834,2.64584 0,1.46209 -1.185112,2.64583 -2.645834,2.64583 z m 0,0"
           style="stroke-width:0.352777" />
        <path
           id="path42"
           fill="#ffd86e"
           d="m 162.01886,148.37535 h -43.29521 c -3.19842,0 -5.79051,-2.59346 -5.79051,-5.79189 V 51.854804 c 0,-3.19705 2.59209,-5.79052 5.79051,-5.79052 h 43.29521 c 3.19843,0 5.79052,2.59347 5.79052,5.79052 v 90.728656 c 0,3.19843 -2.59209,5.79189 -5.79052,5.79189 z m 0,0"
           style="stroke-width:0.352777" />
        <path
           id="path44"
           fill="#ffb509"
           d="m 167.81076,51.854804 v 90.730036 c 0,3.19705 -2.59485,5.78776 -5.7919,5.78776 h -8.46529 c 3.19705,0 5.79052,-2.59071 5.79052,-5.78776 V 51.854804 c 0,-3.19705 -2.59347,-5.79189 -5.79052,-5.79189 h 8.46529 c 3.19705,0 5.7919,2.59484 5.7919,5.79189 z m 0,0"
           style="stroke-width:0.352777" />
        <path
           id="path46"
           fill="#c9f0ff"
           d="m 162.01886,148.37535 h -43.29521 c -3.19842,0 -5.79051,-2.59346 -5.79051,-5.79189 v -8.61136 h 54.87624 v 8.61136 c 0,3.19843 -2.59209,5.79189 -5.79052,5.79189 z m 0,0"
           style="stroke-width:0.352777" />
        <path
           id="path48"
           fill="#c9f0ff"
           d="m 167.80938,60.466164 h -54.87624 v -8.61136 c 0,-3.19705 2.59209,-5.79052 5.79051,-5.79052 h 43.29521 c 3.19843,0 5.79052,2.59347 5.79052,5.79052 z m 0,0"
           style="stroke-width:0.352777" />
        <path
           id="path50"
           fill="#9ae7fd"
           d="m 167.81076,133.97348 v 8.61136 c 0,3.19705 -2.59485,5.78776 -5.7919,5.78776 h -8.53419 c 3.19705,0 5.7919,-2.59071 5.7919,-5.78776 v -8.61136 z m 0,0"
           style="stroke-width:0.352777" />
        <path
           id="path52"
           fill="#9ae7fd"
           d="m 167.81076,51.854804 v 8.61136 h -8.53419 v -8.61136 c 0,-3.19705 -2.59485,-5.79189 -5.7919,-5.79189 h 8.53419 c 3.19705,0 5.7919,2.59484 5.7919,5.79189 z m 0,0"
           style="stroke-width:0.352777" />
        <path
           id="path54"
           fill="#838383"
           d="m 144.91327,144.05245 h -9.08403 c -1.4621,0 -2.64583,-1.18511 -2.64583,-2.64583 0,-1.4621 1.18373,-2.64584 2.64583,-2.64584 h 9.08403 c 1.4621,0 2.64583,1.18374 2.64583,2.64584 0,1.46072 -1.18373,2.64583 -2.64583,2.64583 z m 0,0"
           style="stroke-width:0.352777" />
        <path
           id="path56"
           fill="#838383"
           d="m 135.03825,55.472154 h -3.13228 c -1.4621,0 -2.64583,-1.18373 -2.64583,-2.64583 0,-1.46072 1.18373,-2.64583 2.64583,-2.64583 h 3.13228 c 1.46072,0 2.64583,1.18511 2.64583,2.64583 0,1.4621 -1.18511,2.64583 -2.64583,2.64583 z m 0,0"
           style="stroke-width:0.352777" />
        <path
           id="path58"
           fill="#838383"
           d="m 148.83655,55.472154 h -6.1557 c -1.46072,0 -2.64583,-1.18373 -2.64583,-2.64583 0,-1.46072 1.18511,-2.64583 2.64583,-2.64583 h 6.1557 c 1.46072,0 2.64583,1.18511 2.64583,2.64583 0,1.4621 -1.18373,2.64583 -2.64583,2.64583 z m 0,0"
           style="stroke-width:0.352777" />
        <g
           id="g84"
           fill="#ff5770"
           transform="matrix(0.3527778,0,0,0.3527778,-12.501416,-32.190371)">
          <path
             id="path60"
             d="m 407.28125,308.15234 h -28.44141 c -4.14062,0 -7.5,-3.35547 -7.5,-7.5 0,-4.14062 3.35938,-7.5 7.5,-7.5 h 28.44141 c 4.14062,0 7.5,3.35938 7.5,7.5 0,4.14453 -3.35938,7.5 -7.5,7.5 z m 0,0" />
          <path
             id="path62"
             d="m 441.51562,308.15234 h -12.13281 c -4.14062,0 -7.5,-3.35547 -7.5,-7.5 0,-4.14062 3.35938,-7.5 7.5,-7.5 h 12.13281 c 4.14063,0 7.5,3.35938 7.5,7.5 0,4.14453 -3.35937,7.5 -7.5,7.5 z m 0,0" />
          <path
             id="path64"
             d="m 487.83984,308.15234 h -26.04297 c -4.14062,0 -7.5,-3.35547 -7.5,-7.5 0,-4.14062 3.35938,-7.5 7.5,-7.5 h 26.04297 c 4.14063,0 7.5,3.35938 7.5,7.5 0,4.14453 -3.35937,7.5 -7.5,7.5 z m 0,0" />
          <path
             id="path66"
             d="m 391.5,342.84766 h -12.66016 c -4.14062,0 -7.5,-3.35938 -7.5,-7.5 0,-4.14454 3.35938,-7.5 7.5,-7.5 H 391.5 c 4.14062,0 7.5,3.35546 7.5,7.5 0,4.14062 -3.35938,7.5 -7.5,7.5 z m 0,0" />
          <path
             id="path68"
             d="m 449.00781,342.84766 h -36.22265 c -4.14063,0 -7.5,-3.35938 -7.5,-7.5 0,-4.14454 3.35937,-7.5 7.5,-7.5 h 36.22265 c 4.14063,0 7.5,3.35546 7.5,7.5 0,4.14062 -3.35937,7.5 -7.5,7.5 z m 0,0" />
          <path
             id="path70"
             d="m 487.83984,342.84766 h -14.30859 c -4.14063,0 -7.5,-3.35938 -7.5,-7.5 0,-4.14454 3.35937,-7.5 7.5,-7.5 h 14.30859 c 4.14063,0 7.5,3.35546 7.5,7.5 0,4.14062 -3.35937,7.5 -7.5,7.5 z m 0,0" />
          <path
             id="path72"
             d="m 404.15625,374.76172 h -25.31641 c -4.14062,0 -7.5,-3.35547 -7.5,-7.5 0,-4.14453 3.35938,-7.5 7.5,-7.5 h 25.31641 c 4.14062,0 7.5,3.35547 7.5,7.5 0,4.14453 -3.35938,7.5 -7.5,7.5 z m 0,0" />
          <path
             id="path74"
             d="m 457.33594,374.76172 h -32.05469 c -4.14063,0 -7.5,-3.35547 -7.5,-7.5 0,-4.14453 3.35937,-7.5 7.5,-7.5 h 32.05469 c 4.14062,0 7.5,3.35547 7.5,7.5 0,4.14453 -3.35547,7.5 -7.5,7.5 z m 0,0" />
          <path
             id="path76"
             d="m 487.83984,374.76172 h -9.84765 c -4.14063,0 -7.5,-3.35547 -7.5,-7.5 0,-4.14453 3.35937,-7.5 7.5,-7.5 h 9.84765 c 4.14063,0 7.5,3.35547 7.5,7.5 0,4.14453 -3.35937,7.5 -7.5,7.5 z m 0,0" />
          <path
             id="path78"
             d="m 417.56641,409.45312 h -38.72657 c -4.14062,0 -7.5,-3.35546 -7.5,-7.5 0,-4.14453 3.35938,-7.5 7.5,-7.5 h 38.72657 c 4.14453,0 7.5,3.35547 7.5,7.5 0,4.14454 -3.35547,7.5 -7.5,7.5 z m 0,0" />
          <path
             id="path80"
             d="m 449.94922,409.45312 h -10.49219 c -4.14062,0 -7.5,-3.35546 -7.5,-7.5 0,-4.14453 3.35938,-7.5 7.5,-7.5 h 10.49219 c 4.14062,0 7.5,3.35547 7.5,7.5 0,4.14454 -3.35938,7.5 -7.5,7.5 z m 0,0" />
          <path
             id="path82"
             d="m 487.83984,409.45312 h -18.28515 c -4.14063,0 -7.5,-3.35546 -7.5,-7.5 0,-4.14453 3.35937,-7.5 7.5,-7.5 h 18.28515 c 4.14063,0 7.5,3.35547 7.5,7.5 0,4.14454 -3.35937,7.5 -7.5,7.5 z m 0,0" />
        </g>
      </g>
    </g>
  </g>
</svg>
